<svg version="1.1" viewBox="0.0 0.0 518.7322834645669 100.0" fill="none" stroke="none" stroke-linecap="square" stroke-miterlimit="10" xmlns:xlink="http://www.w3.org/1999/xlink" xmlns="http://www.w3.org/2000/svg"><clipPath id="p.0"><path d="m0 0l518.7323 0l0 100.0l-518.7323 0l0 -100.0z" clip-rule="nonzero"/></clipPath><g clip-path="url(#p.0)"><path fill="#000000" fill-opacity="0.0" d="m0 0l518.7323 0l0 100.0l-518.7323 0z" fill-rule="evenodd"/><path fill="#000000" fill-opacity="0.0" d="m-4.664042 -20.495329l628.2835 0l0 132.50394l-628.2835 0z" fill-rule="evenodd"/><path fill="#202124" d="m43.07033 78.10467l-3.28125 -11.75l-20.781248 0l-3.375 11.75l-11.109375 0l17.625 -59.5625l15.687498 0l17.625 59.5625l-12.390625 0zm-13.531248 -48.625l-7.84375 27.703127l15.593748 0l-7.749998 -27.703127zm74.09349 24.656252q0 6.375 -1.796875 11.031246q-1.796875 4.640625 -5.015625 7.71875q-3.21875 3.078125 -7.59375 4.5625q-4.375 1.46875 -9.515625 1.46875q-5.0625 0 -9.421875 -0.75q-4.34375 -0.75 -8.312504 -2.015625l0 -62.4375l11.125004 0l0 15.125l-0.453125 9.125002q2.5 -3.25 5.84375 -5.203125q3.359375 -1.9531269 8.046875 -1.9531269q4.109375 0 7.296875 1.6406269q3.1875 1.640625 5.34375 4.671875q2.171875 3.03125 3.3125 7.34375q1.140625 4.296875 1.140625 9.671875zm-11.671875 0.453125q0 -3.828125 -0.546875 -6.515625q-0.546875 -2.6875 -1.578125 -4.421875q-1.015625 -1.734375 -2.5 -2.53125q-1.46875 -0.796875 -3.390625 -0.796875q-2.828125 0 -5.40625 2.28125q-2.5625 2.28125 -5.4375 6.203125l0 20.234371q1.328125 0.5 3.265625 0.828125q1.9375 0.3125 3.9375 0.3125q2.640625 0 4.796875 -1.09375q2.171875 -1.09375 3.6875 -3.09375q1.53125 -2.0156212 2.34375 -4.906246q0.828125 -2.90625 0.828125 -6.5zm63.030983 0q0 5.46875 -1.546875 9.999996q-1.546875 4.53125 -4.46875 7.78125q-2.921875 3.234375 -7.15625 5.015625q-4.234375 1.765625 -9.65625 1.765625q-5.1562424 0 -9.218742 -1.5q-4.046875 -1.5 -6.875 -4.484375q-2.828125 -2.984375 -4.328125 -7.46875q-1.5 -4.499996 -1.5 -10.468746q0 -5.515625 1.5625 -10.015625q1.578125 -4.515625 4.515625 -7.703125q2.9375 -3.203125 7.171875 -4.953125q4.25 -1.7500019 9.578117 -1.7500019q5.203125 0 9.25 1.5312519q4.0625 1.515625 6.875 4.53125q2.828125 3.0 4.3125 7.453125q1.484375 4.4375 1.484375 10.265625zm-11.578125 0.28125q0 -7.203125 -2.71875 -10.828125q-2.703125 -3.625 -7.984375 -3.625q-2.921875 0 -4.9687424 1.140625q-2.046875 1.140625 -3.375 3.125q-1.3125 1.984375 -1.9375 4.625q-0.609375 2.640625 -0.609375 5.640625q0 7.25 2.90625 10.921871q2.921875 3.671875 7.9843674 3.671875q2.78125 0 4.828125 -1.109375q2.046875 -1.125 3.328125 -3.109375q1.28125 -1.9843712 1.90625 -4.671871q0.640625 -2.6875 0.640625 -5.78125zm32.21849 -23.062502l0 30.171877q0 3.7812462 1.40625 5.718746q1.421875 1.9375 4.296875 1.9375q2.78125 0 5.34375 -2.296875q2.578125 -2.3125 5.453125 -6.234371l0 -29.296877l11.125 0l0 46.296875l-9.625 0l-0.265625 -6.828125q-1.46875 1.765625 -2.96875 3.234375q-1.5 1.453125 -3.265625 2.484375q-1.75 1.015625 -3.828125 1.578125q-2.0625 0.578125 -4.5625 0.578125q-3.5625 0 -6.234375 -1.15625q-2.65625 -1.171875 -4.4375 -3.3125q-1.78125 -2.140625 -2.671875 -5.125q-0.875 -2.984375 -0.875 -6.671871l0 -31.078127l11.109375 0zm78.46849 45.84375q-3.0 0.6875 -6.0625 1.09375q-3.046875 0.40625 -5.78125 0.40625q-4.5625 0 -7.859375 -0.953125q-3.296875 -0.953125 -5.46875 -2.90625q-2.15625 -1.96875 -3.1875 -5.0q-1.03125 -3.03125 -1.03125 -7.218746l0 -22.609375l-12.4375 0l0 -8.656252l12.4375 0l0 -11.84375l11.390625 -2.96875l0 14.8125l18.0 0l0 8.656252l-18.0 0l0 21.78125q0 3.9687462 1.828125 5.999996q1.828125 2.015625 6.109375 2.015625q2.734375 0 5.328125 -0.453125q2.59375 -0.453125 4.734375 -1.046875l0 8.890625zm97.4839 0.453125l-1.09375 -33.67187l-0.40625 -13.453127l-2.875 9.125002l-6.609375 20.265625l-7.015625 0l-5.96875 -20.265625l-2.515625 -9.125002l-0.3125 13.171877l-1.0 33.95312l-9.53125 0l2.921875 -59.5625l12.671875 0l5.234375 16.906252l2.5 9.53125l2.515625 -8.984375l5.515625 -17.453127l12.890625 0l2.96875 59.5625l-9.890625 0zm58.60913 -26.703121q0 1.140625 -0.078125 2.96875q-0.0625 1.8125 -0.203125 3.40625l-30.4375 0q0 3.0625 0.921875 5.390625q0.9375 2.3124962 2.640625 3.8906212q1.71875 1.5625 4.109375 2.390625q2.390625 0.8125 5.3125 0.8125q3.375 0 7.21875 -0.515625q3.859375 -0.53125 8.0 -1.71875l0 8.84375q-1.78125 0.5 -3.875 0.921875q-2.09375 0.40625 -4.28125 0.71875q-2.1875 0.328125 -4.421875 0.484375q-2.234375 0.15625 -4.328125 0.15625q-5.28125 0 -9.484375 -1.5q-4.1875 -1.5 -7.109375 -4.4375q-2.90625 -2.953125 -4.46875 -7.28125q-1.546875 -4.328121 -1.546875 -10.015621q0 -5.65625 1.546875 -10.28125q1.5625 -4.625 4.375 -7.921875q2.828125 -3.3125 6.859375 -5.109375q4.046875 -1.7968769 9.015625 -1.7968769q4.921875 0 8.703125 1.5312519q3.78125 1.515625 6.328125 4.25q2.546875 2.734375 3.875 6.515625q1.328125 3.78125 1.328125 8.296875zm-11.3125 -1.59375q0.046875 -2.734375 -0.6875 -4.765625q-0.71875 -2.03125 -1.984375 -3.34375q-1.25 -1.328125 -2.921875 -1.96875q-1.65625 -0.640625 -3.5625 -0.640625q-4.1875 0 -6.875 2.8125q-2.6875 2.796875 -3.203125 7.90625l19.234375 0zm97.70264 9.796875l-9.515625 0l-1.6875 -45.890625l12.890625 0l-1.6875 45.890625zm-4.78125 5.328121q1.453125 0 2.75 0.546875q1.3125 0.546875 2.265625 1.515625q0.953125 0.953125 1.515625 2.25q0.578125 1.296875 0.578125 2.796875q0 1.5 -0.578125 2.8125q-0.5625 1.296875 -1.515625 2.25q-0.953125 0.953125 -2.265625 1.5q-1.296875 0.546875 -2.75 0.546875q-1.453125 0 -2.765625 -0.546875q-1.296875 -0.546875 -2.25 -1.5q-0.953125 -0.953125 -1.5 -2.25q-0.546875 -1.3125 -0.546875 -2.8125q0 -1.5 0.546875 -2.796875q0.546875 -1.296875 1.5 -2.25q0.953125 -0.96875 2.25 -1.515625q1.3125 -0.546875 2.765625 -0.546875z" fill-rule="nonzero"/></g></svg>