<svg version="1.1" viewBox="0.0 0.0 529.2230971128608 137.58005249343833" fill="none" stroke="none" stroke-linecap="square" stroke-miterlimit="10" xmlns:xlink="http://www.w3.org/1999/xlink" xmlns="http://www.w3.org/2000/svg"><clipPath id="p.0"><path d="m0 0l529.2231 0l0 137.58005l-529.2231 0l0 -137.58005z" clip-rule="nonzero"/></clipPath><g clip-path="url(#p.0)"><path fill="#000000" fill-opacity="0.0" d="m0 0l529.2231 0l0 137.58005l-529.2231 0z" fill-rule="evenodd"/><path fill="#000000" fill-opacity="0.0" d="m0 -36.687664l628.28345 0l0 180.97638l-628.28345 0z" fill-rule="evenodd"/><path fill="#202124" d="m65.25 100.31233l-1.5625 -48.10937l-0.59375 -19.203125l-4.09375 13.015625l-9.4375 28.968746l-10.03125 0l-8.53125 -28.968746l-3.578125 -13.015625l-0.453125 18.8125l-1.4375 48.499996l-13.609375 0l4.171875 -85.09375l18.09375 0l7.5 24.15625l3.578125 13.609375l3.578125 -12.828125l7.875 -24.9375l18.421875 0l4.234375 85.09375l-14.125 0zm65.88255 -7.21875q-3.453125 8.578125 -7.203125 15.0625q-3.734375 6.484375 -8.234375 10.8125q-4.484375 4.328125 -9.984375 6.5q-5.5 2.1875 -12.34375 2.1875q-1.625 0 -3.546875 -0.171875q-1.921875 -0.15625 -3.9375 -0.484375l0 -13.46875q0.78125 0.125 1.78125 0.28125q1.015625 0.171875 2.125 0.265625q1.109375 0.09375 2.25 0.15625q1.140625 0.078125 2.109375 0.078125q2.734375 0 5.078125 -1.046875q2.34375 -1.046875 4.328125 -2.90625q1.984375 -1.84375 3.609375 -4.421875q1.640625 -2.5625 2.875 -5.625l-26.234375 -66.140625l17.703125 0l13.734375 37.499996l4.109375 12.109375l4.03125 -11.59375l13.875 -38.01562l17.046875 0l-23.171875 58.92187zm164.18697 7.21875l-18.8125 0l-8.40625 -26.234375l-3.0625 -10.671871l-2.921875 10.937496l-8.26561 25.96875l-18.03125 0l-4.765625 -85.09375l14.140625 0l2.015625 54.562496l0.515625 14.90625l3.84375 -13.28125l9.374985 -30.265621l10.09375 0l9.890625 32.093746l3.1875 11.328125l0.265625 -13.28125l2.140625 -56.062496l13.609375 0l-4.8125 85.09375zm75.50757 -33.59375q0 7.8125 -2.21875 14.296875q-2.203125 6.46875 -6.375 11.09375q-4.15625 4.625 -10.21875 7.171875q-6.046875 2.53125 -13.796875 2.53125q-7.359375 0 -13.15625 -2.140625q-5.78125 -2.15625 -9.828125 -6.421875q-4.03125 -4.265625 -6.1875 -10.671875q-2.140625 -6.421875 -2.140625 -14.953125q0 -7.874996 2.234375 -14.312496q2.25 -6.453125 6.453125 -11.0q4.203125 -4.5625 10.25 -7.0625q6.0625 -2.515625 13.671875 -2.515625q7.421875 0 13.21875 2.1875q5.796875 2.171875 9.828125 6.46875q4.046875 4.296875 6.15625 10.65625q2.109375 6.34375 2.109375 14.671871zm-16.53125 0.390625q0 -10.281246 -3.875 -15.453121q-3.875 -5.1875 -11.421875 -5.1875q-4.171875 0 -7.109375 1.640625q-2.921875 1.625 -4.8125 4.453125q-1.875 2.828125 -2.765625 6.609375q-0.875 3.765625 -0.875 8.062496q0 10.359375 4.171875 15.609375q4.171875 5.234375 11.390625 5.234375q3.96875 0 6.890625 -1.59375q2.9375 -1.59375 4.765625 -4.421875q1.828125 -2.84375 2.734375 -6.6875q0.90625 -3.84375 0.90625 -8.265625zm72.85132 -7.218746q0.125 -3.71875 -0.359375 -6.3125q-0.484375 -2.609375 -1.5625 -4.296875q-1.078125 -1.703125 -2.640625 -2.484375q-1.5625 -0.78125 -3.578125 -0.78125q-3.515625 0 -7.265625 2.90625q-3.734375 2.890625 -8.21875 9.53125l0 41.85937l-16.28125 0l0 -66.140625l14.390625 0l0.578125 9.625q1.625 -2.53125 3.671875 -4.546875q2.0625 -2.015625 4.5625 -3.484375q2.515625 -1.46875 5.5625 -2.25q3.0625 -0.78125 6.71875 -0.78125q5.015625 0 8.875 1.734375q3.875 1.71875 6.515625 5.109375q2.640625 3.375 3.90625 8.484375q1.265625 5.109375 1.078125 11.828125l-15.953125 0zm71.67944 40.42187l-24.421875 -33.078125l0 33.078125l-15.875 0l0 -91.984375l15.875 0l0 53.828125l23.125 -27.984375l19.84375 0l-26.8125 30.140621l29.03125 36.0l-20.765625 0z" fill-rule="nonzero"/></g></svg>